<svg xmlns="http://www.w3.org/2000/svg" width="24" height="19.875" viewBox="0 0 24 19.875">
  <defs>
    <style>
      .cls-1 {
        fill: #fff;
        fill-rule: evenodd;
      }
    </style>
  </defs>
  <path id="Aksiyalar" class="cls-1" d="M56.5,844.448a0.5,0.5,0,0,1-.486-0.394,0.512,0.512,0,0,1,.372-0.615l17-4.092a0.5,0.5,0,0,1,.6.38,0.511,0.511,0,0,1-.372.615l-17,4.092A0.456,0.456,0,0,1,56.5,844.448Zm17,12.278a0.453,0.453,0,0,1-.114-0.014l-17-4.093a0.511,0.511,0,0,1-.372-0.614,0.5,0.5,0,0,1,.6-0.381l17,4.093a0.51,0.51,0,0,1,.372.614A0.5,0.5,0,0,1,73.5,856.726Zm-17-4.093h-2A1.519,1.519,0,0,1,53,851.1V844.96a1.52,1.52,0,0,1,1.5-1.535h2a0.506,0.506,0,0,1,.5.512v8.185A0.506,0.506,0,0,1,56.5,852.633Zm-2-8.185a0.507,0.507,0,0,0-.5.512V851.1a0.507,0.507,0,0,0,.5.511H56v-7.162H54.5Zm21,12.906a1.478,1.478,0,0,1-.478-0.08l-1.684-.574a0.516,0.516,0,0,1-.316-0.648,0.5,0.5,0,0,1,.633-0.324l1.684,0.575a0.487,0.487,0,0,0,.45-0.07A0.512,0.512,0,0,0,76,855.818V840.241a0.513,0.513,0,0,0-.208-0.416,0.481,0.481,0,0,0-.45-0.07l-1.684.575a0.5,0.5,0,0,1-.633-0.324,0.515,0.515,0,0,1,.316-0.647l1.684-.575a1.447,1.447,0,0,1,1.352.212A1.53,1.53,0,0,1,77,840.241v15.577a1.531,1.531,0,0,1-.623,1.245A1.466,1.466,0,0,1,75.5,857.354Zm-8.534,1.224a1.409,1.409,0,0,1-.4-0.059l-5.7-1.665a1.511,1.511,0,0,1-1.011-.989l-0.833-2.558a0.516,0.516,0,0,1,.316-0.648,0.5,0.5,0,0,1,.632.324l0.833,2.558a0.5,0.5,0,0,0,.337.328l5.7,1.667a0.5,0.5,0,0,0,.584-0.264l0.595-2.218a0.5,0.5,0,0,1,.615-0.355,0.511,0.511,0,0,1,.348.629l-0.629,2.31A1.541,1.541,0,0,1,66.97,858.578Z" transform="translate(-53 -838.688)"/>
</svg>
