<svg xmlns="http://www.w3.org/2000/svg" width="29.5" height="24.91" viewBox="0 0 29.5 24.91">
  <defs>
    <style>
      .cls-1 {
        fill: #fff;
        fill-rule: evenodd;
      }
    </style>
  </defs>
  <path id="Nağd_və_ya_kartla_ödəniş_" data-name="Nağd və ya  kartla ödəniş " class="cls-1" d="M294.984,3059.51H271.632a0.625,0.625,0,0,1,0-1.25h23.352a0.619,0.619,0,0,0,.615-0.62v-6.23a0.615,0.615,0,1,1,1.229,0v6.23A1.86,1.86,0,0,1,294.984,3059.51Zm1.229-12.46a0.621,0.621,0,0,1-.614-0.63v-4.98a0.622,0.622,0,0,0-.615-0.63H271.632a0.613,0.613,0,0,1-.615-0.62,0.619,0.619,0,0,1,.615-0.62h23.352a1.86,1.86,0,0,1,1.844,1.87v4.98A0.621,0.621,0,0,1,296.213,3047.05Zm-27.039,9.97a0.621,0.621,0,0,1-.615-0.63v-16.2a0.615,0.615,0,1,1,1.229,0v16.2A0.62,0.62,0,0,1,269.174,3057.02Zm2.458-16.21a3.115,3.115,0,0,1,0-6.23,0.625,0.625,0,0,1,0,1.25,1.87,1.87,0,0,0,0,3.74,0.619,0.619,0,0,1,.615.62A0.613,0.613,0,0,1,271.632,3040.81Zm-2.458,1.25a0.619,0.619,0,0,1-.615-0.62v-3.74a0.615,0.615,0,1,1,1.229,0v3.74A0.618,0.618,0,0,1,269.174,3042.06Zm23.352-1.25a0.612,0.612,0,0,1-.614-0.62v-3.74a0.619,0.619,0,0,0-.615-0.62H271.632a0.625,0.625,0,0,1,0-1.25H291.3a1.86,1.86,0,0,1,1.844,1.87v3.74A0.613,0.613,0,0,1,292.526,3040.81Zm-20.894,18.7a3.1,3.1,0,0,1-3.073-3.12,0.615,0.615,0,1,1,1.229,0,1.86,1.86,0,0,0,1.844,1.87A0.625,0.625,0,0,1,271.632,3059.51Zm17.207-7.48a3.115,3.115,0,0,1,0-6.23,0.625,0.625,0,0,1,0,1.25,1.865,1.865,0,0,0,0,3.73A0.625,0.625,0,0,1,288.839,3052.03Zm7.374,0h-7.374a0.625,0.625,0,0,1,0-1.25h7.374a0.619,0.619,0,0,0,.615-0.62v-2.49a0.619,0.619,0,0,0-.615-0.62h-7.374a0.625,0.625,0,0,1,0-1.25h7.374a1.86,1.86,0,0,1,1.844,1.87v2.49A1.86,1.86,0,0,1,296.213,3052.03Z" transform="translate(-268.563 -3034.59)"/>
</svg>
