<svg xmlns="http://www.w3.org/2000/svg" width="34.406" height="24.97" viewBox="0 0 34.406 24.97">
  <defs>
    <style>
      .cls-1 {
        fill: #fff;
        fill-rule: evenodd;
      }
    </style>
  </defs>
  <path id="Pulsuz_çatdırılma_50_azn-dən_yuxarı" data-name="Pulsuz çatdırılma 50 azn-dən yuxarı" class="cls-1" d="M49.985,3057.51H40.714a0.61,0.61,0,1,1,0-1.22h8.043v-17.71a1.214,1.214,0,0,0-1.219-1.21H32.447a1.214,1.214,0,0,0-1.22,1.21v17.71h0.829a0.61,0.61,0,1,1,0,1.22H30v-18.93a2.45,2.45,0,0,1,2.448-2.44H47.538a2.45,2.45,0,0,1,2.447,2.44v18.93Zm14.43,0h-3.5a0.61,0.61,0,1,1,0-1.22h2.273v-3.71a2.266,2.266,0,0,0-2.273-2.26h-3.5v-4.93a0.829,0.829,0,0,0-.83-0.83h-6.6v11.73h2.273a0.61,0.61,0,1,1,0,1.22h-3.5v-14.17h7.828a2.057,2.057,0,0,1,2.058,2.05v3.7h2.271a3.5,3.5,0,0,1,3.5,3.49v4.93Zm-7.83,3.6a4.21,4.21,0,1,1,4.221-4.21A4.221,4.221,0,0,1,56.586,3061.11Zm0-7.19a2.985,2.985,0,1,0,2.993,2.98A2.986,2.986,0,0,0,56.586,3053.92Zm-20.2,7.19a4.21,4.21,0,1,1,4.221-4.21A4.221,4.221,0,0,1,36.385,3061.11Zm0-7.19a2.985,2.985,0,1,0,2.993,2.98A2.986,2.986,0,0,0,36.385,3053.92Z" transform="translate(-30 -3036.16)"/>
</svg>
