<svg xmlns="http://www.w3.org/2000/svg" width="23" height="24" viewBox="0 0 23 24">
  <defs>
    <style>
      .cls-1 {
        fill: #ff8230;
        fillRule: evenodd;
      }
    </style>
  </defs>
  <path id="Elektronika_və_mebel" data-name="Elektronika və mebel" className="cls-1" d="M74.5,812h-20a1.5,1.5,0,0,1-1.5-1.5v-5a1.5,1.5,0,0,1,1.5-1.5h20a1.5,1.5,0,0,1,1.5,1.5v5A1.5,1.5,0,0,1,74.5,812Zm-20-7a0.5,0.5,0,0,0-.5.5v5a0.5,0.5,0,0,0,.5.5h20a0.5,0.5,0,0,0,.5-0.5v-5a0.5,0.5,0,0,0-.5-0.5h-20Zm0,9a0.5,0.5,0,0,1-.5-0.5v-2a0.5,0.5,0,1,1,1,0v2A0.5,0.5,0,0,1,54.5,814Zm20,0a0.5,0.5,0,0,1-.5-0.5v-2a0.5,0.5,0,1,1,1,0v2A0.5,0.5,0,0,1,74.5,814Zm1-5h-22a0.5,0.5,0,1,1,0-1h22A0.5,0.5,0,0,1,75.5,809Zm-3-8h-16a0.5,0.5,0,0,1-.5-0.5v-10a0.5,0.5,0,0,1,.5-0.5h16a0.5,0.5,0,0,1,.5.5v10A0.5,0.5,0,0,1,72.5,801ZM57,800H72v-9H57v9Zm7.5,12a0.5,0.5,0,0,1-.5-0.5v-3a0.5,0.5,0,1,1,1,0v3A0.5,0.5,0,0,1,64.5,812Zm0-7a0.5,0.5,0,0,1-.5-0.5v-4a0.5,0.5,0,1,1,1,0v4A0.5,0.5,0,0,1,64.5,805Z" transform="translate(-53 -790)"/>
</svg>
