<svg xmlns="http://www.w3.org/2000/svg" width="22.344" height="24" viewBox="0 0 22.344 24">
  <defs>
    <style>
      .cls-1 {
        fill: #ff8230;
        fill-rule: evenodd;
      }
    </style>
  </defs>
  <path id="Ərzaq_məhsulları" data-name="Ərzaq məhsulları" class="cls-1" d="M57.916,345a4.008,4.008,0,0,1-3.4-2.226,14.613,14.613,0,0,1,.61-11.99,0.506,0.506,0,0,1,.678-0.219,0.5,0.5,0,0,1,.221.672,13.617,13.617,0,0,0-.571,11.169A2.989,2.989,0,0,0,57.916,344H71.038a3,3,0,0,0,2.47-1.6,13.615,13.615,0,0,0-.586-11.184,0.5,0.5,0,0,1,.22-0.673,0.509,0.509,0,0,1,.679.218,14.612,14.612,0,0,1,.625,12.008A4.021,4.021,0,0,1,71.039,345H57.916Zm6.815-3.25c-2.131,0-3.785-2.956-3.785-5.5,0-2.224,1.379-3.5,3.785-3.5s3.785,1.276,3.785,3.5C68.515,338.794,66.862,341.75,64.73,341.75Zm0-8c-1.841,0-2.775.841-2.775,2.5,0,1.983,1.307,4.5,2.775,4.5s2.776-2.517,2.776-4.5C67.506,334.591,66.572,333.75,64.73,333.75ZM67.253,325h-11.1a0.5,0.5,0,1,1,0-1h11.1A0.5,0.5,0,1,1,67.253,325Zm6.056,0H71.291a0.5,0.5,0,1,1,0-1h2.019A0.5,0.5,0,1,1,73.309,325ZM71.8,330a5.7,5.7,0,0,1-3.532-.978c-1.47,1.305-5.7,1.29-7.11-.041a5.808,5.808,0,0,1-3.488.939c-1.8,0-4.037,0-4.037-1.42a0.5,0.5,0,0,1,.053-0.224l1.965-3.894V322.5a1.509,1.509,0,0,1,1.514-1.5H72.3a1.509,1.509,0,0,1,1.514,1.5v1.882l1.965,3.894a0.507,0.507,0,0,1,.053.224C75.832,330,73.206,330,71.8,330Zm-3.028-2c0,0.353,1.149,1,3.028,1,2.386,0,2.892-.305,3-0.439l-1.937-3.837A0.506,0.506,0,0,1,72.8,324.5v-2a0.5,0.5,0,0,0-.5-0.5H57.161a0.5,0.5,0,0,0-.5.5v2a0.5,0.5,0,0,1-.053.224l-1.939,3.841c0.114,0.142.673,0.355,3,.355,1.878,0,3.028-.647,3.028-1a0.5,0.5,0,0,1,1.009,0c0,0.433,1.15,1.08,3.028,1.08s3.028-.647,3.028-1A0.5,0.5,0,0,1,68.767,328Z" transform="translate(-53.5 -321)"/>
</svg>
