<svg xmlns="http://www.w3.org/2000/svg" width="24.438" height="18" viewBox="0 0 24.438 18">
  <defs>
    <style>
      .cls-1 {
        fill: #ff8230;
        fill-rule: evenodd;
      }
    </style>
  </defs>
  <path id="Ət_və_toyuq_məhsulları" data-name="Ət və toyuq məhsulları" class="cls-1" d="M72.937,249H60.731a7.573,7.573,0,0,1-7.629-7.5v-3a0.509,0.509,0,0,1,1.017,0v3a6.564,6.564,0,0,0,6.611,6.5H72.937a3.534,3.534,0,0,0,3.56-3.5v-3a0.509,0.509,0,0,1,1.017,0v3A4.544,4.544,0,0,1,72.937,249Zm0-3H60.931a7.666,7.666,0,0,1-7.8-6.924,7.5,7.5,0,0,1,2-5.759A7.642,7.642,0,0,1,60.739,231c2.626,0,4.261,1.489,5.842,2.928,1.633,1.488,3.322,3.026,6.228,3.071a4.659,4.659,0,0,1,4.489,3.074,4.472,4.472,0,0,1-1.96,5.263,0.512,0.512,0,0,1-.7-0.164,0.494,0.494,0,0,1,.167-0.687,3.5,3.5,0,0,0,1.521-4.115A3.649,3.649,0,0,0,72.794,238c-3.3-.052-5.213-1.8-6.9-3.337C64.322,233.233,62.967,232,60.739,232a6.632,6.632,0,0,0-4.871,2,6.518,6.518,0,0,0-1.723,5.01A6.654,6.654,0,0,0,60.931,245H72.937A0.5,0.5,0,1,1,72.937,246Zm-13.223-5a2.5,2.5,0,1,1,2.543-2.5A2.525,2.525,0,0,1,59.714,241Zm0-4a1.5,1.5,0,1,0,1.526,1.5A1.515,1.515,0,0,0,59.714,237Z" transform="translate(-53.094 -231)"/>
</svg>
