<svg xmlns="http://www.w3.org/2000/svg" width="29.5" height="29.69" viewBox="0 0 29.5 29.69">
  <defs>
    <style>
      .cls-1 {
        fill: #fff;
        fill-rule: evenodd;
      }
    </style>
  </defs>
  <path id="Hədiyyə_kuponları" data-name="Hədiyyə kuponları" class="cls-1" d="M528.169,3059.73H507.275a1.858,1.858,0,0,1-1.844-1.86v-14.28h24.582v14.28A1.858,1.858,0,0,1,528.169,3059.73Zm-21.508-14.9v13.04a0.619,0.619,0,0,0,.614.62h20.894a0.619,0.619,0,0,0,.615-0.62v-13.04H506.661Zm25.81,0h-29.5v-4.35a1.851,1.851,0,0,1,1.844-1.86h25.81a1.851,1.851,0,0,1,1.844,1.86v4.35Zm-28.269-1.24h27.04v-3.11a0.619,0.619,0,0,0-.615-0.62h-25.81a0.619,0.619,0,0,0-.615.62v3.11Zm12.906-4.3a0.544,0.544,0,0,1-.275-0.07l-5.559-2.8a3.4,3.4,0,0,1-.869-5.41,3.265,3.265,0,0,1,3.21-.89,3.326,3.326,0,0,1,2.375,2.34l1.708,6.04A0.614,0.614,0,0,1,517.108,3039.29Zm-4.341-8.04a2.075,2.075,0,0,0-1.484.63,2.138,2.138,0,0,0,.541,3.42l4.309,2.18-1.324-4.68h0a2.092,2.092,0,0,0-1.5-1.48A1.99,1.99,0,0,0,512.767,3031.25Zm4.648,8.04a0.614,0.614,0,0,1-.591-0.79l1.708-6.04a3.326,3.326,0,0,1,2.376-2.34,3.264,3.264,0,0,1,3.2.88,3.4,3.4,0,0,1-.861,5.42l-5.558,2.8A0.547,0.547,0,0,1,517.415,3039.29Zm4.339-8.04a1.988,1.988,0,0,0-.538.07,2.093,2.093,0,0,0-1.5,1.48h0l-1.323,4.68,4.308-2.18a2.105,2.105,0,0,0,1.142-1.56,2.148,2.148,0,0,0-.592-1.86A2.107,2.107,0,0,0,521.754,3031.25Zm-2.631,1.38h0Zm-1.4,26.48h-1.229v-19.25h1.229v19.25Z" transform="translate(-502.969 -3030.03)"/>
</svg>
