<svg xmlns="http://www.w3.org/2000/svg" width="23.688" height="22.781" viewBox="0 0 23.688 22.781">
  <defs>
    <style>
      .cls-1 {
        fill: #ff8230;
        fillRule: evenodd;
      }
    </style>
  </defs>
  <path id="Heyvan_yemləri" data-name="Heyvan yemləri" className="cls-1" d="M69.932,765.888A16.023,16.023,0,0,1,66.9,765.3a14.027,14.027,0,0,0-2.1-.44,14.043,14.043,0,0,0-2.1.44,16.018,16.018,0,0,1-3.029.585,3.574,3.574,0,0,1-3.571-3.569c0-.024.01-0.131,0.014-0.155-0.017-1.883,1.612-3.076,3.581-4.334a1.561,1.561,0,0,0,.552-0.6,6.7,6.7,0,0,1,4.1-3.567c0.049-.009.1-0.015,0.155-0.022a1.951,1.951,0,0,1,.549-0.006c0.1,0.013.151,0.019,0.2,0.029l0.144,0.029a6.9,6.9,0,0,1,3.953,3.537,1.564,1.564,0,0,0,.549.6c0.3,0.191.579,0.357,0.844,0.515,1.4,0.831,2.5,1.488,2.713,3.636a3.278,3.278,0,0,1,.041.34A3.575,3.575,0,0,1,69.932,765.888ZM64.8,763.876a13.021,13.021,0,0,1,2.34.47,16.194,16.194,0,0,0,2.789.555,2.585,2.585,0,0,0,2.584-2.582c0-.022-0.014-0.092-0.022-0.141,0-.01-0.014-0.084-0.014-0.094-0.158-1.658-.9-2.1-2.235-2.893-0.273-.162-0.563-0.335-0.868-0.53a2.568,2.568,0,0,1-.894-0.97,5.9,5.9,0,0,0-3.311-3.037l-0.218-.037a1.158,1.158,0,0,0-.289,0l-0.137.018a5.717,5.717,0,0,0-3.4,3.056,2.549,2.549,0,0,1-.9.971c-1.775,1.136-3.133,2.111-3.119,3.466a1.093,1.093,0,0,1-.015.181,2.583,2.583,0,0,0,2.581,2.592,16.191,16.191,0,0,0,2.789-.555A13.023,13.023,0,0,1,64.8,763.876Zm-3.355-11.925c-1.5,0-2.916-1.691-3.294-4.017a5.315,5.315,0,0,1,.694-3.9,2.215,2.215,0,0,1,1.467-.938c1.593-.231,3.177,1.523,3.579,4a5.316,5.316,0,0,1-.695,3.9,2.213,2.213,0,0,1-1.467.939A2.107,2.107,0,0,1,61.448,751.951ZM60.6,744.058a0.906,0.906,0,0,0-.147.011,1.232,1.232,0,0,0-.812.545,4.4,4.4,0,0,0-.516,3.162c0.3,1.871,1.429,3.336,2.464,3.178a1.237,1.237,0,0,0,.812-0.545,4.4,4.4,0,0,0,.516-3.163h0C62.631,745.463,61.593,744.058,60.6,744.058Zm-3.989,13.813c-1.46,0-2.887-1.628-3.347-3.909a5.376,5.376,0,0,1,.54-3.962,2.169,2.169,0,0,1,1.4-.976c1.576-.295,3.2,1.41,3.7,3.876h0a5.374,5.374,0,0,1-.539,3.96,2.171,2.171,0,0,1-1.4.978A1.938,1.938,0,0,1,56.615,757.871Zm-1.045-7.894a1.105,1.105,0,0,0-.182.016,1.2,1.2,0,0,0-.762.559,4.461,4.461,0,0,0-.39,3.215c0.376,1.867,1.541,3.275,2.555,3.1a1.2,1.2,0,0,0,.762-0.561,4.455,4.455,0,0,0,.389-3.213h0C57.587,751.338,56.532,749.977,55.57,749.977ZM68.5,751.951a2.114,2.114,0,0,1-.285-0.02,2.213,2.213,0,0,1-1.466-.939,5.312,5.312,0,0,1-.7-3.9h0c0.4-2.473,1.972-4.22,3.581-4a2.217,2.217,0,0,1,1.465.937,5.32,5.32,0,0,1,.7,3.9C71.414,750.26,70,751.951,68.5,751.951Zm0.844-7.893c-0.99,0-2.027,1.4-2.317,3.188h0a4.4,4.4,0,0,0,.517,3.163,1.237,1.237,0,0,0,.812.545c1.036,0.156,2.16-1.306,2.465-3.178a4.4,4.4,0,0,0-.518-3.163,1.233,1.233,0,0,0-.811-0.544A0.916,0.916,0,0,0,69.342,744.058Zm-2.8,3.11h0Zm6.793,10.7a1.944,1.944,0,0,1-.355-0.033,2.174,2.174,0,0,1-1.4-.977,5.374,5.374,0,0,1-.54-3.961c0.5-2.466,2.109-4.169,3.7-3.876a2.168,2.168,0,0,1,1.4.976,5.376,5.376,0,0,1,.541,3.962C76.219,756.243,74.793,757.871,73.331,757.871Zm1.045-7.894c-0.963,0-2.019,1.36-2.372,3.118a4.455,4.455,0,0,0,.39,3.213,1.2,1.2,0,0,0,.762.561c1.015,0.184,2.178-1.235,2.554-3.1a4.462,4.462,0,0,0-.391-3.215,1.2,1.2,0,0,0-.761-0.559A1.1,1.1,0,0,0,74.376,749.977Z" transform="translate(-53.125 -743.094)"/>
</svg>
