<svg xmlns="http://www.w3.org/2000/svg" width="23.969" height="24" viewBox="0 0 23.969 24">
  <defs>
    <style>
      .cls-1 {
        fill: #ff8230;
        fillRule: evenodd;
      }
    </style>
  </defs>
  <path id="Konselyariya" className="cls-1" d="M71.748,720H56.5a1.514,1.514,0,0,1-1.524-1.5v-21A1.514,1.514,0,0,1,56.5,696H71.748a0.5,0.5,0,1,1,0,1H56.5a0.505,0.505,0,0,0-.508.5v21a0.505,0.505,0,0,0,.508.5H71.748a0.505,0.505,0,0,0,.508-0.5v-9a0.508,0.508,0,0,1,1.016,0v9A1.514,1.514,0,0,1,71.748,720Zm-2.032-3H58.537a0.5,0.5,0,1,1,0-1H69.716A0.5,0.5,0,1,1,69.716,717Zm-8.465-5.667H58.537a0.5,0.5,0,1,1,0-1H61.25A0.5,0.5,0,1,1,61.25,711.333ZM68.7,700H58.537a0.5,0.5,0,1,1,0-1H68.7A0.5,0.5,0,1,1,68.7,700Zm-6.1,5.666H58.537a0.5,0.5,0,1,1,0-1H62.6A0.5,0.5,0,1,1,62.6,705.666ZM68.7,711H64.634a0.5,0.5,0,0,1-.508-0.5v-4a0.5,0.5,0,0,1,.149-0.354l9.443-9.293a1.542,1.542,0,0,1,2.156,0l2.627,2.586a1.482,1.482,0,0,1,0,2.121l-9.442,9.293A0.512,0.512,0,0,1,68.7,711Zm-3.557-1h3.347l9.294-9.146a0.5,0.5,0,0,0,.149-0.355,0.488,0.488,0,0,0-.149-0.352l-2.627-2.587a0.516,0.516,0,0,0-.72,0l-9.294,9.147V710Zm10.671-6a0.513,0.513,0,0,1-.359-0.146l-4.065-4a0.493,0.493,0,0,1,0-.706,0.513,0.513,0,0,1,.719,0l4.065,4a0.494,0.494,0,0,1,0,.707A0.513,0.513,0,0,1,75.813,704Zm-12.195,8a0.513,0.513,0,0,1-.359-0.146,0.5,0.5,0,0,1,0-.708l1.016-1a0.513,0.513,0,0,1,.719,0,0.493,0.493,0,0,1,0,.706l-1.016,1A0.513,0.513,0,0,1,63.618,712Z" transform="translate(-54.969 -696)"/>
</svg>
