<svg xmlns="http://www.w3.org/2000/svg" width="15.031" height="24" viewBox="0 0 15.031 24">
  <defs>
    <style>
      .cls-1 {
        fill: #ff8230;
        fill-rule: evenodd;
      }
    </style>
  </defs>
  <path id="Kosmetik_və_gigiyenik" data-name="Kosmetik və gigiyenik" class="cls-1" d="M64.5,626H57.479a0.5,0.5,0,0,1-.5-0.5v-11.83a0.5,0.5,0,0,1,.5-0.5H64.5a0.5,0.5,0,0,1,.5.5V625.5A0.5,0.5,0,0,1,64.5,626Zm-6.526-1H64V614.171H57.975V625Zm6.526-1.3H59.694a0.5,0.5,0,0,1,0-1H64.5A0.5,0.5,0,0,1,64.5,623.7Zm-1.108-9.611a0.5,0.5,0,0,1-.5-0.5v-6.342H61.1a1.906,1.906,0,0,0-2.018,1.764v4.578a0.5,0.5,0,1,1-.992,0v-4.578a2.9,2.9,0,0,1,3.011-2.763h2.292a0.5,0.5,0,0,1,.5.5v6.842A0.5,0.5,0,0,1,63.393,614.092ZM69.942,626h-8.6a0.5,0.5,0,0,1,0-1h8.6A1.065,1.065,0,0,0,71,623.931V604.065A1.066,1.066,0,0,0,69.942,603h-6.62a1.066,1.066,0,0,0-1.062,1.068v2.686a0.5,0.5,0,1,1-.992,0v-2.686A2.063,2.063,0,0,1,63.323,602h6.62A2.063,2.063,0,0,1,72,604.065v19.866A2.063,2.063,0,0,1,69.942,626ZM71.5,608.6H63.388a0.5,0.5,0,0,1,0-1H71.5A0.5,0.5,0,0,1,71.5,608.6Zm-2.5-2.1a0.5,0.5,0,0,1-.5-0.5v-0.979a0.5,0.5,0,1,1,.992,0v0.979A0.5,0.5,0,0,1,69,606.506Z" transform="translate(-56.969 -602)"/>
</svg>
