<svg xmlns="http://www.w3.org/2000/svg" width="23" height="23.937" viewBox="0 0 23 23.937">
  <defs>
    <style>
      .cls-1 {
        fill: #ff8230;
        fillRule: evenodd;
      }
    </style>
  </defs>
  <path id="Məişət_mətbəx_və_tekstil" data-name="Məişət, mətbəx və tekstil" className="cls-1" d="M73.5,673h-18a0.5,0.5,0,0,1-.5-0.5V661.52a0.5,0.5,0,0,1,1,0V672H73V661.52a0.5,0.5,0,0,1,1,0V672.5A0.5,0.5,0,0,1,73.5,673Zm2-11.98a0.5,0.5,0,0,1-.5-0.5v-0.778l-10.5-9.529L54,659.744v0.778a0.5,0.5,0,0,1-1,0v-1a0.5,0.5,0,0,1,.164-0.37l11-9.983a0.5,0.5,0,0,1,.673,0l11,9.983a0.5,0.5,0,0,1,.164.37v1A0.5,0.5,0,0,1,75.5,661.021Zm-8,6.988h-6a0.5,0.5,0,0,1-.5-0.5v-6.988a0.5,0.5,0,0,1,.5-0.5h6a0.5,0.5,0,0,1,.5.5v6.988A0.5,0.5,0,0,1,67.5,668.009Zm-5.5-1h5v-5.99H62v5.99Z" transform="translate(-53 -649.063)"/>
</svg>
