<svg xmlns="http://www.w3.org/2000/svg" width="18.406" height="27.41" viewBox="0 0 18.406 27.41">
  <defs>
    <style>
      .cls-1 {
        fill: #fff;
        fill-rule: evenodd;
      }
    </style>
  </defs>
  <path id="Sürətli_mobil_mağaza" data-name="Sürətli mobil mağaza" class="cls-1" d="M954.234,3060.73H939.368a1.766,1.766,0,0,1-1.767-1.76v-23.9a1.766,1.766,0,0,1,1.767-1.76h14.866a1.765,1.765,0,0,1,1.766,1.76v23.9A1.765,1.765,0,0,1,954.234,3060.73Zm-14.866-26.18a0.519,0.519,0,0,0-.52.52v23.9a0.519,0.519,0,0,0,.52.52h14.866a0.518,0.518,0,0,0,.519-0.52v-23.9a0.518,0.518,0,0,0-.519-0.52H939.368Zm16.008,20.49H938.224a0.62,0.62,0,1,1,0-1.24h17.152A0.62,0.62,0,1,1,955.376,3055.04Zm0-17.08H938.224a0.616,0.616,0,0,1-.623-0.62,0.622,0.622,0,0,1,.623-0.62h17.152a0.623,0.623,0,0,1,.624.62A0.617,0.617,0,0,1,955.376,3037.96Zm-7.432,19.31a1.144,1.144,0,1,1-1.143-1.14A1.139,1.139,0,0,1,947.944,3057.27Z" transform="translate(-937.594 -3033.31)"/>
</svg>
