<svg id="Слой_1" data-name="Слой 1" xmlns="http://www.w3.org/2000/svg" width="19.17" height="23.64" viewBox="0 0 19.17 23.64">
  <title>neptun-icon</title>
  <g>
    <path d="M12.71.67A6.92,6.92,0,0,0,8.52,2.09a6.1,6.1,0,0,0-4-1.46H4a2.49,2.49,0,0,0,0,5h.46A1.37,1.37,0,0,1,5.79,7.13v7.06a2.5,2.5,0,0,0,5,0V7.66a2,2,0,0,1,3.91,0v6.53a2.5,2.5,0,0,0,5,0V7.66A7,7,0,0,0,12.71.67Z" transform="translate(-1.03 -0.13)" style="fill: none;stroke: #ff8230;stroke-miterlimit: 10"/>
    <path d="M8.27,19.81a1.49,1.49,0,1,1-1.48,1.48,1.49,1.49,0,0,1,1.48-1.48m0-1a2.49,2.49,0,1,0,2.49,2.48,2.48,2.48,0,0,0-2.49-2.48Z" transform="translate(-1.03 -0.13)" style="fill: #ff8230"/>
    <path d="M17.15,19.81a1.49,1.49,0,1,1-1.49,1.48,1.48,1.48,0,0,1,1.49-1.48m0-1a2.49,2.49,0,1,0,2.48,2.48,2.48,2.48,0,0,0-2.48-2.48Z" transform="translate(-1.03 -0.13)" style="fill: #ff8230"/>
  </g>
</svg>
