<svg xmlns="http://www.w3.org/2000/svg" width="29.5" height="29.91" viewBox="0 0 29.5 29.91">
  <defs>
    <style>
      .cls-1 {
        fill: #fff;
        fill-rule: evenodd;
      }
    </style>
  </defs>
  <path id="Onlayn_müştəri_xidmətləri" data-name="Onlayn müştəri xidmətləri" class="cls-1" d="M706.376,3057.52h-1.229a5.605,5.605,0,0,1,0-11.21h1.229a0.619,0.619,0,0,1,.615.62v9.97A0.619,0.619,0,0,1,706.376,3057.52Zm-1.229-9.97a4.365,4.365,0,0,0,0,8.73h0.615v-8.73h-0.615Zm18.436,9.97h-1.229a0.618,0.618,0,0,1-.614-0.62v-9.97a0.618,0.618,0,0,1,.614-0.62h1.229A5.605,5.605,0,0,1,723.583,3057.52Zm-0.614-1.24h0.614a4.365,4.365,0,0,0,0-8.73h-0.614v8.73Zm0.614-8.73a0.619,0.619,0,0,1-.614-0.62v-1.87a8.6,8.6,0,1,0-17.207,0v1.87a0.615,0.615,0,1,1-1.229,0v-1.87a9.833,9.833,0,1,1,19.665,0v1.87A0.619,0.619,0,0,1,723.583,3047.55Zm-4.916,14.96a0.625,0.625,0,0,1,0-1.25c3.742,0,4.3-2.73,4.3-4.36a0.615,0.615,0,1,1,1.229,0C724.2,3060.41,722.13,3062.51,718.667,3062.51Zm-1.844,2.49h-2.458a2.49,2.49,0,0,1,0-4.98h2.458A2.49,2.49,0,0,1,716.823,3065Zm-2.458-3.74a1.245,1.245,0,0,0,0,2.49h2.458a1.245,1.245,0,0,0,0-2.49h-2.458Z" transform="translate(-699.625 -3035.09)"/>
</svg>
