<svg xmlns="http://www.w3.org/2000/svg" width="25" height="26" viewBox="0 0 25 26">
  <defs>
    <style>
      .cls-1 {
        fill: #ff8230;
        fill-rule: evenodd;
      }
    </style>
  </defs>
  <path id="Qastronom" class="cls-1" d="M67.59,298.89a5.207,5.207,0,0,1-1.624-.27A20.224,20.224,0,0,1,53.29,285.8a4.372,4.372,0,0,1,.424-3.919A2.474,2.474,0,0,1,55.8,280.81l0.3-.009a4.343,4.343,0,0,1,3.929,3.066,12.743,12.743,0,0,0,7.854,7.946,4.373,4.373,0,0,1,3.039,3.953l-0.009.348a2.538,2.538,0,0,1-1.062,2.079A3.713,3.713,0,0,1,67.59,298.89ZM55.731,281.808a1.52,1.52,0,0,0-1.227.673,3.377,3.377,0,0,0-.275,3.015A19.2,19.2,0,0,0,66.268,297.67h0a3.277,3.277,0,0,0,2.983-.277,1.542,1.542,0,0,0,.665-1.28l0.009-.357a3.374,3.374,0,0,0-2.373-3,13.744,13.744,0,0,1-8.467-8.565,3.35,3.35,0,0,0-2.983-2.392l-0.228.007a0.785,0.785,0,0,1-.108,0H55.731ZM71.762,300a1.511,1.511,0,0,1-1.074-.451L69.253,298.1a0.5,0.5,0,0,1,0-.706,0.49,0.49,0,0,1,.572-0.092,0.5,0.5,0,0,1-.048-0.079,0.5,0.5,0,0,1,.221-0.67l1.325-.669a1.5,1.5,0,0,1,1.6.152,1.536,1.536,0,0,1,.568,1.523l-0.239,1.207a1.525,1.525,0,0,1-1.049,1.169A1.493,1.493,0,0,1,71.762,300Zm-1.754-2.551,1.378,1.4a0.519,0.519,0,0,0,.532.134,0.529,0.529,0,0,0,.367-0.409l0.239-1.208a0.531,0.531,0,0,0-.2-0.533,0.515,0.515,0,0,0-.561-0.054l-1.325.67A0.484,0.484,0,0,1,70.007,297.45Zm-15.38-15.279a0.483,0.483,0,0,1-.273-0.084l-0.963-.648a2.689,2.689,0,0,1-1.381-1.72,1.6,1.6,0,0,1,.534-1.3c0.347-.35,1.405-1.414,2.3-0.952,1.147,0.592.824,3.243,0.7,4.041a0.5,0.5,0,0,1-.5.42l-0.011.016A0.49,0.49,0,0,1,54.627,282.171Zm-0.268-3.818a2.176,2.176,0,0,0-1.117.776,0.663,0.663,0,0,0-.25.491,2.068,2.068,0,0,0,.945.988l0.675,0.455c0.163-1.288.071-2.556-.213-2.7A0.1,0.1,0,0,0,54.359,278.353Zm22.139-.245H59.051a0.5,0.5,0,0,1-.493-0.5V274.5a0.5,0.5,0,0,1,.493-0.5H76.5a0.5,0.5,0,0,1,.493.5v3.113A0.5,0.5,0,0,1,76.5,278.108Zm-16.953-1H76V275H59.545v2.115ZM76.5,297.825H73.019a0.5,0.5,0,0,1,0-1H76v-2.116H70.012a0.5,0.5,0,0,1,0-1H76.5a0.5,0.5,0,0,1,.493.5v3.114A0.5,0.5,0,0,1,76.5,297.825Zm-12.449,0h-5a0.5,0.5,0,0,1-.493-0.5v-3.114a0.5,0.5,0,0,1,.493-0.5H59.39a0.5,0.5,0,0,1,.155.973v2.14h4.5A0.5,0.5,0,0,1,64.049,297.825Zm11.423-3.114h-5.46a0.5,0.5,0,0,1,0-1h4.967V278.108H60.571v7.242a0.493,0.493,0,1,1-.987,0v-7.741a0.5,0.5,0,0,1,.493-0.5h15.4a0.5,0.5,0,0,1,.493.5v16.6A0.5,0.5,0,0,1,75.472,294.711Zm-7.7-5.188a4.689,4.689,0,1,1,4.085-4.65A4.4,4.4,0,0,1,67.775,289.523Zm0-8.3a3.7,3.7,0,1,0,3.1,3.652A3.413,3.413,0,0,0,67.775,281.221Z" transform="translate(-52 -274)"/>
</svg>
