<svg xmlns="http://www.w3.org/2000/svg" width="23.938" height="21.969" viewBox="0 0 23.938 21.969">
  <defs>
    <style>
      .cls-1 {
        fill: #ff8230;
        fill-rule: evenodd;
      }
    </style>
  </defs>
  <path id="Şirniyyat_çay_və_qəhvə" data-name="Şirniyyat, çay və qəhvə" class="cls-1" d="M73.74,390.977h-9a0.5,0.5,0,0,1,0-1.007h8.646l2.586-7.748a0.5,0.5,0,0,1,.63-0.316,0.5,0.5,0,0,1,.312.638l-2.7,8.091A0.5,0.5,0,0,1,73.74,390.977Zm2.7-8.09a0.5,0.5,0,0,1-.5-0.5,0.868,0.868,0,0,0,0-.1,6.408,6.408,0,0,0-6.7-6.692c-0.24,0-.478.009-0.7,0.026A0.513,0.513,0,0,1,68,375.152a0.5,0.5,0,0,1,.458-0.541c0.247-.019.512-0.029,0.777-0.029a7.41,7.41,0,0,1,7.69,7.609,1.144,1.144,0,0,1,.009.192A0.5,0.5,0,0,1,76.44,382.887Zm-7.2,0a0.5,0.5,0,0,1-.5-0.5,1.313,1.313,0,0,0-.926-1.261,0.5,0.5,0,0,1-.331-0.628,0.5,0.5,0,0,1,.62-0.335,2.311,2.311,0,0,1,1.631,2.224A0.5,0.5,0,0,1,69.239,382.887Zm3.6,0a0.5,0.5,0,0,1-.5-0.5,1.3,1.3,0,1,0-2.607,0,0.5,0.5,0,1,1-.994,0,2.3,2.3,0,1,1,4.6,0A0.5,0.5,0,0,1,72.84,382.887Zm3.6,0a0.5,0.5,0,0,1-.5-0.5,1.3,1.3,0,1,0-2.607,0,0.5,0.5,0,1,1-.994,0,2.3,2.3,0,1,1,4.595,0A0.5,0.5,0,0,1,76.44,382.887Zm-5.851-10.148h-17.1a0.5,0.5,0,0,1-.5-0.5v-0.913a2.315,2.315,0,0,1,2.3-2.327h13.5a2.315,2.315,0,0,1,2.3,2.327v0.913A0.5,0.5,0,0,1,70.589,372.739Zm-16.607-1.007h16.11v-0.409a1.313,1.313,0,0,0-1.3-1.32h-13.5a1.313,1.313,0,0,0-1.3,1.32v0.409Zm12.192,19.25H57.9a1.4,1.4,0,0,1-1.391-1.275L54.79,372.286a0.507,0.507,0,0,1,.126-0.388,0.493,0.493,0,0,1,.368-0.166h13.5a0.493,0.493,0,0,1,.369.166,0.5,0.5,0,0,1,.125.388l-1.719,17.421A1.4,1.4,0,0,1,66.173,390.982ZM55.834,372.739L57.5,389.607a0.4,0.4,0,0,0,.4.367h8.273a0.4,0.4,0,0,0,.4-0.367l1.664-16.868h-12.4Zm6.2,10.946a4.187,4.187,0,1,1,3.648-4.152A3.929,3.929,0,0,1,62.037,383.685Zm0-7.3a3.19,3.19,0,1,0,2.654,3.145A2.934,2.934,0,0,0,62.037,376.388Zm2.051,4.6a4.2,4.2,0,0,1-2.324-.92c-0.879-.585-1.573-1.046-2.671-0.537a0.494,0.494,0,0,1-.658-0.249,0.506,0.506,0,0,1,.245-0.667,3.386,3.386,0,0,1,3.63.612c0.877,0.585,1.572,1.045,2.671.537a0.494,0.494,0,0,1,.658.249,0.506,0.506,0,0,1-.246.667A3.077,3.077,0,0,1,64.087,380.987Z" transform="translate(-53 -369)"/>
</svg>
