<svg xmlns="http://www.w3.org/2000/svg" width="18.906" height="23.937" viewBox="0 0 18.906 23.937">
  <defs>
    <style>
      .cls-1 {
        fill: #ff8230;
        fill-rule: evenodd;
      }
    </style>
  </defs>
  <path id="Süd_məhsulları" data-name="Süd məhsulları" class="cls-1" d="M67.464,486H56.513a1.5,1.5,0,0,1-1.493-1.5v-14.96a0.5,0.5,0,0,1,.5-0.5H67.464a0.5,0.5,0,0,1,.5.5V485.5A0.5,0.5,0,0,1,67.464,486ZM56.016,470.043v14.462a0.5,0.5,0,0,0,.5.5H66.966V470.043H56.016Zm11.448,0H55.518a0.5,0.5,0,0,1-.457-0.695l2.987-6.981a0.5,0.5,0,0,1,.457-0.3H70.451a0.5,0.5,0,0,1,.458.695l-2.987,6.982A0.5,0.5,0,0,1,67.464,470.043Zm-11.191-1H67.135l2.561-5.984H58.833ZM72.442,486H67.464a0.5,0.5,0,0,1-.5-0.5V469.545a0.5,0.5,0,0,1,.5-0.5h5.973a0.5,0.5,0,0,1,.5.5v14.96A1.5,1.5,0,0,1,72.442,486Zm-4.48-1h4.48a0.5,0.5,0,0,0,.5-0.5V470.043H67.962V485Zm5.476-14.961a0.5,0.5,0,0,1-.458-0.3l-2.987-6.982a0.5,0.5,0,1,1,.916-0.392l2.987,6.981a0.5,0.5,0,0,1-.262.655A0.487,0.487,0,0,1,73.437,470.043ZM62.984,467.55a1.5,1.5,0,1,1,1.493-1.5A1.5,1.5,0,0,1,62.984,467.55Zm0-2a0.5,0.5,0,1,0,.5.5A0.5,0.5,0,0,0,62.984,465.555Z" transform="translate(-55.031 -462.063)"/>
</svg>
