<svg xmlns="http://www.w3.org/2000/svg" width="23" height="23.906" viewBox="0 0 23 23.906">
  <defs>
    <style>
      .cls-1 {
        fill: #ff8230;
        fillRule: evenodd;
      }
    </style>
  </defs>
  <path id="Uşaq_məhsulları" data-name="Uşaq məhsulları" className="cls-1" d="M72.5,533a2.5,2.5,0,1,1,2.5-2.5A2.5,2.5,0,0,1,72.5,533Zm0-3.994a1.5,1.5,0,1,0,1.5,1.5A1.5,1.5,0,0,0,72.5,529.007ZM60.5,533a2.5,2.5,0,1,1,2.5-2.5A2.5,2.5,0,0,1,60.5,533Zm0-3.994a1.5,1.5,0,1,0,1.5,1.5A1.5,1.5,0,0,0,60.5,529.007Zm9.411-2H62.09c-3.927,0-6.089-2.869-6.089-8.077v-1.409a0.5,0.5,0,0,1,.5-0.5h19a0.5,0.5,0,0,1,.5.5v1.409C76,524.141,73.838,527.01,69.911,527.01ZM57,518.023v0.91c0,4.7,1.712,7.079,5.089,7.079h7.822c3.377,0,5.089-2.382,5.089-7.079v-0.91H57Zm18.5,0H67a0.5,0.5,0,0,1-.493-0.582L67.7,510.35a1.511,1.511,0,0,1,1.683-1.243A7.67,7.67,0,0,1,76,516.681v0.843A0.5,0.5,0,0,1,75.5,518.023Zm-7.909-1H75v-0.344a6.667,6.667,0,0,0-5.751-6.584,0.507,0.507,0,0,0-.562.417h0Zm0.6-6.593h0ZM56.5,518.023a0.5,0.5,0,0,1-.474-0.341l-0.886-2.654H53.5a0.5,0.5,0,1,1,0-1h2a0.5,0.5,0,0,1,.474.341l1,3a0.5,0.5,0,0,1-.316.632A0.514,0.514,0,0,1,56.5,518.023Z" transform="translate(-53 -509.094)"/>
</svg>
