<svg xmlns="http://www.w3.org/2000/svg" width="22" height="22.812" viewBox="0 0 22 22.812">
  <defs>
    <style>
      .cls-1 {
        fill: #ff8230;
        fillRule: evenodd;
      }
    </style>
  </defs>
  <path id="Yuyucu_vasitələr" data-name="Yuyucu vasitələr" className="cls-1" d="M72.5,579h-15a0.5,0.5,0,0,1-.485-0.378L56.1,574.973a2.5,2.5,0,0,1-2.1-2.466v-2a0.5,0.5,0,0,1,.5-0.5h21a0.5,0.5,0,0,1,.5.5v2a2.5,2.5,0,0,1-2.1,2.466l-0.913,3.649A0.5,0.5,0,0,1,72.5,579Zm-14.609-1H72.109l0.905-3.617a0.5,0.5,0,0,1,.485-0.379,1.5,1.5,0,0,0,1.5-1.5v-1.5H55v1.5a1.5,1.5,0,0,0,1.5,1.5,0.5,0.5,0,0,1,.485.379Zm13.28-8.991a0.5,0.5,0,0,1-.5-0.5v-2.238a1.431,1.431,0,0,1,1.43-1.429h1.51a0.435,0.435,0,0,0,.43-0.43v-2.776a3.189,3.189,0,0,0-2-2.965l-3.6-1.478a0.406,0.406,0,0,0-.508.149,3.309,3.309,0,0,1-5.866,0,0.409,0.409,0,0,0-.509-0.147l-3.6,1.477a3.189,3.189,0,0,0-2,2.965v2.776a0.436,0.436,0,0,0,.43.43H57.9a1.431,1.431,0,0,1,1.43,1.429v2.238a0.5,0.5,0,0,1-1,0v-2.238a0.43,0.43,0,0,0-.43-0.43H56.39a1.431,1.431,0,0,1-1.43-1.429v-2.776a4.184,4.184,0,0,1,2.622-3.89l3.6-1.478a1.413,1.413,0,0,1,1.773.609,2.309,2.309,0,0,0,4.094,0,1.412,1.412,0,0,1,1.772-.612l3.6,1.479a4.185,4.185,0,0,1,2.619,3.89v2.776a1.431,1.431,0,0,1-1.43,1.429H72.1a0.43,0.43,0,0,0-.43.43v2.238A0.5,0.5,0,0,1,71.171,569.01Z" transform="translate(-54 -556.188)"/>
</svg>
